<svg xmlns="http://www.w3.org/2000/svg" viewBox="0 0 1200 700">
  <defs>
    <linearGradient id="bg" x1="0" y1="0" x2="1" y2="1">
      <stop offset="0" stop-color="#0b0c0f"/>
      <stop offset="1" stop-color="#12283a"/>
    </linearGradient>
    <linearGradient id="acc" x1="0" y1="0" x2="1" y2="1">
      <stop offset="0" stop-color="#7ef0c1"/>
      <stop offset="1" stop-color="#6ea8ff"/>
    </linearGradient>
  </defs>
  <rect width="1200" height="700" fill="url(#bg)"/>
  <!-- buildings -->
  <g fill="rgba(255,255,255,0.07)" stroke="rgba(255,255,255,0.12)" stroke-width="2">
    <rect x="170" y="260" width="240" height="320" rx="18"/>
    <rect x="450" y="210" width="310" height="370" rx="18"/>
    <rect x="800" y="285" width="230" height="295" rx="18"/>
  </g>
  <!-- windows -->
  <g fill="rgba(110,168,255,0.35)">
    <rect x="200" y="300" width="18" height="22" rx="4"/>
<rect x="232" y="300" width="18" height="22" rx="4"/>
<rect x="264" y="300" width="18" height="22" rx="4"/>
<rect x="296" y="300" width="18" height="22" rx="4"/>
<rect x="328" y="300" width="18" height="22" rx="4"/>
<rect x="360" y="300" width="18" height="22" rx="4"/>
<rect x="200" y="338" width="18" height="22" rx="4"/>
<rect x="232" y="338" width="18" height="22" rx="4"/>
<rect x="264" y="338" width="18" height="22" rx="4"/>
<rect x="296" y="338" width="18" height="22" rx="4"/>
<rect x="328" y="338" width="18" height="22" rx="4"/>
<rect x="360" y="338" width="18" height="22" rx="4"/>
<rect x="200" y="376" width="18" height="22" rx="4"/>
<rect x="232" y="376" width="18" height="22" rx="4"/>
<rect x="264" y="376" width="18" height="22" rx="4"/>
<rect x="296" y="376" width="18" height="22" rx="4"/>
<rect x="328" y="376" width="18" height="22" rx="4"/>
<rect x="360" y="376" width="18" height="22" rx="4"/>
<rect x="200" y="414" width="18" height="22" rx="4"/>
<rect x="232" y="414" width="18" height="22" rx="4"/>
<rect x="264" y="414" width="18" height="22" rx="4"/>
<rect x="296" y="414" width="18" height="22" rx="4"/>
<rect x="328" y="414" width="18" height="22" rx="4"/>
<rect x="360" y="414" width="18" height="22" rx="4"/>
  </g>
  <g fill="rgba(126,240,193,0.30)">
    <rect x="485" y="250" width="18" height="22" rx="4"/>
<rect x="519" y="250" width="18" height="22" rx="4"/>
<rect x="553" y="250" width="18" height="22" rx="4"/>
<rect x="587" y="250" width="18" height="22" rx="4"/>
<rect x="621" y="250" width="18" height="22" rx="4"/>
<rect x="655" y="250" width="18" height="22" rx="4"/>
<rect x="689" y="250" width="18" height="22" rx="4"/>
<rect x="485" y="290" width="18" height="22" rx="4"/>
<rect x="519" y="290" width="18" height="22" rx="4"/>
<rect x="553" y="290" width="18" height="22" rx="4"/>
<rect x="587" y="290" width="18" height="22" rx="4"/>
<rect x="621" y="290" width="18" height="22" rx="4"/>
<rect x="655" y="290" width="18" height="22" rx="4"/>
<rect x="689" y="290" width="18" height="22" rx="4"/>
<rect x="485" y="330" width="18" height="22" rx="4"/>
<rect x="519" y="330" width="18" height="22" rx="4"/>
<rect x="553" y="330" width="18" height="22" rx="4"/>
<rect x="587" y="330" width="18" height="22" rx="4"/>
<rect x="621" y="330" width="18" height="22" rx="4"/>
<rect x="655" y="330" width="18" height="22" rx="4"/>
<rect x="689" y="330" width="18" height="22" rx="4"/>
<rect x="485" y="370" width="18" height="22" rx="4"/>
<rect x="519" y="370" width="18" height="22" rx="4"/>
<rect x="553" y="370" width="18" height="22" rx="4"/>
<rect x="587" y="370" width="18" height="22" rx="4"/>
<rect x="621" y="370" width="18" height="22" rx="4"/>
<rect x="655" y="370" width="18" height="22" rx="4"/>
<rect x="689" y="370" width="18" height="22" rx="4"/>
  </g>
  <!-- network nodes -->
  <g>
    <circle cx="290" cy="235" r="12" fill="url(#acc)"/>
    <circle cx="605" cy="175" r="12" fill="url(#acc)"/>
    <circle cx="915" cy="260" r="12" fill="url(#acc)"/>
    <path d="M290 235 L605 175 L915 260" stroke="rgba(126,240,193,0.45)" stroke-width="4" fill="none"/>
  </g>
  <!-- chart line -->
  <path d="M220 610 L350 570 L520 595 L660 545 L820 565 L980 520" fill="none" stroke="rgba(255,213,106,0.55)" stroke-width="6" stroke-linecap="round"/>
  <text x="60" y="110" fill="#e9e9ef" font-family="system-ui, -apple-system, Segoe UI, Roboto, Arial" font-size="54" font-weight="700">Smart Campus Energy Optimization</text>
  <text x="60" y="170" fill="#b6b8c6" font-family="system-ui, -apple-system, Segoe UI, Roboto, Arial" font-size="28">IoT · analítica · dashboard · KPIs · ESG</text>
</svg>
